<?xml version="1.0" encoding="iso-8859-1"?>
<!-- Generator: Adobe Illustrator 16.0.0, SVG Export Plug-In . SVG Version: 6.00 Build 0)  -->
<!DOCTYPE svg PUBLIC "-//W3C//DTD SVG 1.1//EN" "http://www.w3.org/Graphics/SVG/1.1/DTD/svg11.dtd">
<svg version="1.1" id="Capa_1" xmlns="http://www.w3.org/2000/svg" xmlns:xlink="http://www.w3.org/1999/xlink" x="0px" y="0px"
	 width="573.098px" height="573.098px" viewBox="0 0 573.098 573.098" style="enable-background:new 0 0 573.098 573.098;"
	 xml:space="preserve">
<g>
	<path d="M326.337,446.187c-0.189,0.079-0.38,0.165-0.569,0.244c0.098,5.141,2.479,9.357,5.863,13.617
		c0.403-2.992-0.942-5.238-1.897-7.491C328.804,450.348,327.487,448.304,326.337,446.187z"/>
	<path d="M286.551,229.96c-18.335,0-38.678-0.888-59.988-2.583L75.411,545.44l420.995,5.03L350.884,227.017
		C327.995,228.944,306.129,229.96,286.551,229.96z M354.979,327.556c0.146,2.577-0.588,4.957-1.903,6.995
		c0.27,0.221,0.588,0.343,0.839,0.594c0.061,0.062,7.46-2.521,8.739-2.271c4.125,0.82,2.87,5.925,3.041,9.284
		c0.049,0.918,0.08,1.903-0.403,2.687c-0.875,1.42-2.889,1.451-4.554,1.322c-0.771-0.062,7.222,9.002,7.986,9.7
		c1.126,1.016,2.13,1.849,2.858,2.692c1.298,1.506,1.744,3.072,0.514,5.857c-2.717,6.162-14.461,9.938-20.33,11.218
		c-1.469,0.318-3.005,2.032-3.715,3.482c-2.381,4.859-4.309,9.033-4.682,14.284c-0.392,5.508-0.337,9.73-2.828,14.944
		c-2.539,5.301-7.172,10.104-7.876,16.139c-0.551,4.762,1.371,9.56,1.75,14.406c0.318,4.095,0.661,8.306,2.442,12.008
		c1.677,3.482,12.907,7.895,8.794,11.047c-2.956,2.271-12.02,3.69-12.02,3.69c-3.226,1.542-9.155,4.271-10.753,3.549
		c-1.597-0.722-2.497-6.211-2.497-6.211c0.643-0.931,1.059-2.253,0.998-3.385c-0.282-4.89-2.711-8.979-6.182-12.081
		c-3.213-2.883-4.51-6.763-6.707-10.146c-2.197-3.396-3.813-7.161-5.9-10.637c-1.389-2.308-3.616-3.005-6.102-1.977
		c-7.252,2.992-14.51,7.02-22.289,8.427c-3.335,0.606-6.702,1.579-10.037,1.518c-2.718-0.049-5.447-1.291-8.109-2.196
		c-2.607-0.888-3.745-0.41-3.757,2.307c-0.012,3.213,0.539,6.433,0.52,9.646c-0.012,3.054-0.116,6.175-0.777,9.137
		c-0.875,3.917-0.985,7.711,0.539,11.39c1.524,3.653,3.176,7.276,5.116,10.716c1.916,3.391,4.082,6.107,6.279,9.333
		c3.176,0.147,8.458,3.054,7.699,4.333c-0.759,1.279-13.097,5.796-14.578,5.483c-1.481-0.312-1.579-2.197-1.579-2.197
		c-0.459-8.91-12.993-18.151-18.85-23.519c0.147,0.489,0.294,0.979,0.441,1.475c-2.656-2.374-5.208-4.357-6.787-7.619
		c-0.128,0.287-0.263,0.575-0.398,0.862c-5.355-7.215-7.136-14.455-9.78-22.668c-5.636-17.454-33.495-41.512-14.78-60.233
		c4.915-4.914,10.233-9.517,17.35-9.811c17.675-0.734,34.486-5.697,51.476-10.128c16.39-4.272,33.237-8.018,48.195-16.268
		c1.016-0.562,2.068-1.126,3.121-1.713c-2.394-0.594-4.725-1.543-6.922-2.962c-3.537-2.289-0.251-7.963,3.305-5.655
		c3.17,2.05,6.769,2.932,10.367,2.681c0.521-1.206,0.856-2.516,1.641-3.629c1.523-2.167,3.378-3.134,5.752-4.113
		c-0.184,0.367-0.367,0.74-0.551,1.108c0,0.226,6.579,1.064,7.987,1.303c1.01-1.095,1.432-2.484,1.334-4.18
		C348.179,323.333,354.733,323.352,354.979,327.556z"/>
	<path d="M564.717,145.976c-16.407-7.742-36.94-14.743-59.425-20.894c-11.824-3.238-21.946-6.604-21.886-7.993
		c0.031-0.838-1.016-1.683-1.016-2.528V76.789c0-29.199-17.729-54.162-42.246-54.162H132.951c-24.511,0-42.24,24.963-42.24,54.162
		v37.772c0,0.851-1.053,1.689-1.016,2.528c0.061,1.395-10.061,4.761-21.885,7.993c-22.485,6.15-43.017,13.152-59.425,20.894
		c-11.09,5.227-11.224,16.218-0.135,21.444c52.846,24.939,145.607,42.228,223.949,48.097l45.539-95.827
		c-10.612-3.672-18.28-13.642-18.28-25.502c0-14.963,12.13-27.099,27.1-27.099l0,0h0.006c14.963,0,27.087,12.13,27.087,27.099
		c0,9.291-4.719,17.436-11.843,22.32l-0.483-1.053c-4.253,2.778-9.314,5.128-14.773,5.128c-3.091,0-6.016,1.194-8.788,0.239
		l-40.251,86.366l-4.669,9.896c-0.453-0.031-0.924-0.062-1.377-0.092v1.475h0.722l0,0h0.061l0.643-1.371
		c18.005,1.334,38.14,1.365,54.401,1.365c17.361,0,34.725-2.46,57.87-4.137l0.379,0.838c77.339-6.188,167.492-23.292,219.299-47.736
		C575.935,162.188,575.807,151.202,564.717,145.976z M181.776,121.288c-14.963,0-27.099-12.13-27.099-27.1
		c0-14.969,12.129-27.099,27.099-27.099s27.1,12.13,27.1,27.099C208.876,109.158,196.746,121.288,181.776,121.288z M391.319,121.288
		c-14.964,0-27.094-12.13-27.094-27.1c0-14.969,12.13-27.099,27.094-27.099c14.963,0,27.099,12.13,27.099,27.099
		C418.418,109.158,406.282,121.288,391.319,121.288z"/>
</g>
<g>
</g>
<g>
</g>
<g>
</g>
<g>
</g>
<g>
</g>
<g>
</g>
<g>
</g>
<g>
</g>
<g>
</g>
<g>
</g>
<g>
</g>
<g>
</g>
<g>
</g>
<g>
</g>
<g>
</g>
</svg>
