<svg id="Layer_1" enable-background="new 0 0 512 512" height="512" viewBox="0 0 512 512" width="512" xmlns="http://www.w3.org/2000/svg"><g><path d="m443.76 121.656c-22.889-22.889-60.273-22.713-83.277 0l-83.27 83.278 83.27 83.269c22.981 22.981 60.297 22.981 83.277 0 22.981-22.981 22.981-60.289 0-83.269 22.981-22.982 22.981-60.297 0-83.278z"/><path d="m151.517 121.654c-23.004-22.713-60.389-22.889-83.277 0-22.981 22.981-22.981 60.296 0 83.278-22.981 22.981-22.981 60.289 0 83.269 22.981 22.981 60.297 22.981 83.277 0l83.27-83.269z"/><path d="m240.815 436.027c-1.662 25.628-23.029 45.973-49.07 45.973h-.008c-8.284 0-14.996 6.716-14.996 15s6.72 15 15.004 15c42.632 0 77.485-33.869 79.109-76.111-5.111-1.611-10.058-3.683-14.791-6.197-4.873 2.589-9.975 4.705-15.248 6.335z"/><path d="m256.062 226.209-83.269 83.27c-22.981 22.981-22.981 60.297 0 83.277 22.981 22.981 60.289 22.981 83.269 0 22.981 22.981 60.297 22.981 83.278 0 22.889-22.889 22.713-60.274 0-83.277z"/><path d="m256.065 183.783 83.277-83.27c22.713-23.004 22.889-60.389 0-83.278-22.981-22.981-60.296-22.981-83.278 0-22.981-22.981-60.289-22.981-83.27 0s-22.981 60.297 0 83.278z"/></g></svg>