<?xml version="1.0" encoding="iso-8859-1"?>
<!-- Generator: Adobe Illustrator 16.0.0, SVG Export Plug-In . SVG Version: 6.00 Build 0)  -->
<!DOCTYPE svg PUBLIC "-//W3C//DTD SVG 1.1//EN" "http://www.w3.org/Graphics/SVG/1.1/DTD/svg11.dtd">
<svg version="1.1" id="Capa_1" xmlns="http://www.w3.org/2000/svg" xmlns:xlink="http://www.w3.org/1999/xlink" x="0px" y="0px"
	 width="544.68px" height="544.68px" viewBox="0 0 544.68 544.68" style="enable-background:new 0 0 544.68 544.68;"
	 xml:space="preserve">
<g>
	<path d="M361.08,278.461c0-3.379,2.742-6.121,6.119-6.121H526.32c3.377,0,6.119-2.741,6.119-6.12V156.06
		c0-3.378-2.742-6.12-6.119-6.12h-42.84c-3.379,0-6.121-2.742-6.121-6.12V94.86c0-3.378-2.742-6.12-6.119-6.12H428.4
		c-3.379,0-6.121-2.742-6.121-6.12V39.78c0-3.378-2.74-6.12-6.119-6.12H128.52c-3.378,0-6.12,2.742-6.12,6.12v42.84
		c0,3.378-2.742,6.12-6.12,6.12H73.44c-3.378,0-6.12,2.742-6.12,6.12v48.96c0,3.378-2.742,6.12-6.12,6.12H18.36
		c-3.378,0-6.12,2.742-6.12,6.12v110.16c0,3.378,2.742,6.12,6.12,6.12h159.12c3.378,0,6.12,2.742,6.12,6.121v42.84
		c0,3.377,2.742,6.119,6.12,6.119h165.239c3.379,0,6.121-2.742,6.121-6.119V278.461z M238.68,205.021c0,3.378-2.742,6.12-6.12,6.12
		h-97.92c-3.378,0-6.12-2.742-6.12-6.12v-48.96c0-3.378,2.742-6.12,6.12-6.12h97.92c3.378,0,6.12,2.742,6.12,6.12V205.021z
		 M312.119,211.14c-3.377,0-6.119-2.742-6.119-6.12v-48.96c0-3.378,2.742-6.12,6.119-6.12h97.92c3.379,0,6.121,2.742,6.121,6.12
		v48.96c0,3.378-2.742,6.12-6.121,6.12H312.119z"/>
	<path d="M177.48,327.42h-48.96c-3.378,0-6.12,2.742-6.12,6.121V382.5c0,3.379,2.742,6.121,6.12,6.121h48.96
		c3.378,0,6.12-2.742,6.12-6.121v-48.959C183.6,330.162,180.858,327.42,177.48,327.42z"/>
	<path d="M116.28,388.621H67.32c-3.378,0-6.12,2.74-6.12,6.119v48.961c0,3.377,2.742,6.119,6.12,6.119h48.96
		c3.378,0,6.12-2.742,6.12-6.119V394.74C122.4,391.361,119.658,388.621,116.28,388.621z"/>
	<path d="M55.08,449.82H6.12c-3.378,0-6.12,2.742-6.12,6.119V504.9c0,3.379,2.742,6.119,6.12,6.119h48.96
		c3.378,0,6.12-2.74,6.12-6.119v-48.961C61.2,452.562,58.458,449.82,55.08,449.82z"/>
	<path d="M422.279,333.541c0-3.379-2.74-6.121-6.119-6.121h-48.961c-3.377,0-6.119,2.742-6.119,6.121V382.5
		c0,3.379,2.742,6.121,6.119,6.121h48.961c3.379,0,6.119-2.742,6.119-6.121V333.541z"/>
	<path d="M483.48,394.74c0-3.379-2.742-6.119-6.121-6.119H428.4c-3.379,0-6.121,2.74-6.121,6.119v48.961
		c0,3.377,2.742,6.119,6.121,6.119h48.959c3.379,0,6.121-2.742,6.121-6.119V394.74z"/>
	<path d="M538.561,449.82H489.6c-3.379,0-6.119,2.742-6.119,6.119V504.9c0,3.379,2.74,6.119,6.119,6.119h48.961
		c3.377,0,6.119-2.74,6.119-6.119v-48.961C544.68,452.562,541.938,449.82,538.561,449.82z"/>
</g>
<g>
</g>
<g>
</g>
<g>
</g>
<g>
</g>
<g>
</g>
<g>
</g>
<g>
</g>
<g>
</g>
<g>
</g>
<g>
</g>
<g>
</g>
<g>
</g>
<g>
</g>
<g>
</g>
<g>
</g>
</svg>
