<?xml version="1.0" encoding="iso-8859-1"?>
<!-- Generator: Adobe Illustrator 16.0.0, SVG Export Plug-In . SVG Version: 6.00 Build 0)  -->
<!DOCTYPE svg PUBLIC "-//W3C//DTD SVG 1.1//EN" "http://www.w3.org/Graphics/SVG/1.1/DTD/svg11.dtd">
<svg version="1.1" id="Capa_1" xmlns="http://www.w3.org/2000/svg" xmlns:xlink="http://www.w3.org/1999/xlink" x="0px" y="0px"
	 width="539.81px" height="539.81px" viewBox="0 0 539.81 539.81" style="enable-background:new 0 0 539.81 539.81;"
	 xml:space="preserve">
<g>
	<g>
		<path d="M464.233,275.302c-48.47,75.268-109.503-19.768-28.572-66.508C516.592,162.053,528.62,0,528.62,0
			c-13.66,36.585-80.119,146.019-126.488,94.823s26.015-79.601,26.015-79.601C340.752,8.686,330.968,85.586,317.9,125.586
			c-13.068,40-39.743,6.813-26.063-3.733c13.681-10.547,5.708-35.732,5.708-35.732s2.819,30.51-83.036,24.48
			c-85.855-6.03-291.051,180.188-161.56,345.666C259.254,719.907,464.233,275.302,464.233,275.302z M38.53,368.375
			c-0.388-1.873-0.779-3.799-1.265-5.802c-2.68-11.073,0.396-23.179,3.109-33.864c1.064-4.198,2.077-8.168,2.542-11.317
			c2.648-17.928,11.159-25.635,18.756-30.151c0.269-0.604,0.592-1.403,0.833-1.999c0.812-2.021,1.824-4.533,3.39-7.03
			c3.843-6.12,11.29-13.158,14.292-15.606c3.688-3.007,7.813-4.108,12.183-5.275c0.796-0.212,1.922-0.514,2.844-0.788
			c1.665-1.661,3.333-2.807,4.603-3.68c1.889-1.297,2.46-1.693,3.517-4.814c1.885-5.573,8.356-18.54,27.695-18.54
			c3.256,0,6.189,0.351,8.547,0.628c0.555,0.065,1.241,0.147,1.738,0.2c6.079-1.126,17.928-2.481,20.433-2.762l2.689-0.302
			l2.644,0.583l25.684,5.659c3.839-1.53,7.977-2.317,12.256-2.317c10.755,0,20.139,4.892,25.749,7.813
			c0.734,0.384,1.701,0.885,2.219,1.134c7.862,2.436,28.972,12.722,40.331,20.963c12.252,8.891,25.7,28.471,42.122,55.133
			c14.305,23.224,15.169,25.354,16.246,29.943c0.249,1.028,0.433,2.143,0.743,3.986c0.636,3.814,1.962,11.759,3.741,16.516
			c5.438,14.55-3.395,25.553-7.165,30.253c-0.428,0.535-0.999,1.245-1.265,1.612c-1.391,2.647-3.436,5.381-5.989,8.796
			c-2.546,3.403-8.507,11.371-9.249,14.492c-2.199,10.768-7.45,16.929-11.669,21.881c-1.437,1.686-2.795,3.276-4.044,5.063
			c-5.744,8.188-15.332,14.015-22.333,18.267c-1.094,0.665-2.521,1.53-3.28,2.031c-0.572,0.62-1.469,1.665-2.114,2.412
			c-3.321,3.863-7.087,8.241-11.759,11.053c-7.213,4.337-27.189,7.923-34.341,7.923c-0.318,0-0.62-0.004-0.914-0.012
			c-2.803,0.452-10.433,2.978-14.178,4.214c-3.419,1.131-6.373,2.105-8.719,2.742l-1.869,0.518
			c-5.924,1.653-14.875,4.146-24.068,4.146c-3.484,0-6.777-0.367-9.796-1.093c-12.342-2.971-18.792-10.388-23.974-16.349
			c-0.967-1.114-1.966-2.265-3.056-3.436c-4.868-5.206-7.536-10.869-9.103-15.056c-10.486-5.055-21.135-10.253-26.386-13.488
			c-6.589-4.06-9.816-8.144-13.554-12.872c-2.387-3.02-5.357-6.777-10.555-12.437c-2.436-2.647-4.553-4.94-6.442-6.984
			c-8.739-9.458-12.729-13.778-19.449-22.358C42.406,387.155,40.346,377.18,38.53,368.375z"/>
		<path d="M109.457,438.751c3.272,2.016,9.788,5.308,15.994,8.352c4.859-4.419,9.722-8.833,14.582-13.252
			c3.884-3.529,9.674,2.224,5.769,5.77c-4.153,3.773-8.303,7.544-12.456,11.317c3.721,1.796,6.471,3.113,6.887,3.37
			c0.518,0.322,0.946,1.975,1.689,4.235c0.563-1.053,1.302-1.665,2.105-2.109c1.289-0.714,1.493-2.375,2.097-3.338
			c0.604-0.963,2.04-2.35,2.615-2.819c0.575-0.469,3.268-0.734,3.766-1.525c0.498-0.792,2.109-0.897,3.088-3.803
			c0.979-2.905,4.79-1.367,5.933-1.62c1.142-0.253,4.917-0.677,4.917-0.677l7.646,1.685c2.917-2.183,6.757,0.865,7.952,1.191
			c1.2,0.327,6.165,2.701,8.674,4.517c2.509,1.815,5.757,6.704,9.159,12.232c3.407,5.528,3.342,5.626,3.46,6.111
			s0.494,3.46,1.228,5.423c0.734,1.962-1.256,3.341-1.824,4.467c-0.135,0.27-0.416,0.67-0.767,1.139
			c3.162-1.044,6.7-2.22,10.004-3.207c0.167-18.788-11.342-35.834-29.343-42.061c-4.941-1.709-2.815-9.592,2.17-7.87
			c20.686,7.152,34.819,26.242,35.341,47.956c0.608-0.081,1.179-0.139,1.652-0.139c0.151,0,0.294,0.004,0.429,0.013
			c0.22,0.016,0.469,0.024,0.738,0.024c5.822,0,22.371-3.448,25.928-5.59c3.725-2.24,8.503-8.927,11.392-11.677
			c2.889-2.754,17.588-9.556,23.142-17.471c5.553-7.915,11.134-11.273,13.088-20.833c1.955-9.559,14.505-23.088,16.843-27.731
			c2.338-4.643,10.555-10.347,7.531-18.441c-3.027-8.095-4.577-20.38-5.059-22.375s-0.229-2.407-14.28-25.223
			s-27.463-42.975-37.81-50.481c-10.347-7.507-30.845-17.299-35.79-18.646c-3.66-0.996-13.289-8.152-22.921-8.152
			c-3.387,0-6.773,0.881-9.902,3.227l-31.551-6.952c0,0-14.892,1.673-19.951,2.725c1.93,0.804,5.606,2.648,7.658,4.137
			c2.509,1.82,5.757,6.704,9.164,12.232c3.403,5.528,3.342,5.626,3.46,6.112c0.119,0.485,0.494,3.46,1.228,5.423
			c0.734,1.962-1.256,3.345-1.824,4.467c-0.567,1.126-3.606,4.402-4.08,6.72c-0.473,2.317-1.828,3.13-3.17,5.047
			c-1.342,1.918-4.908,3.566-5.606,4.231c-0.698,0.669-1.856,2.289-2.762,2.831c-0.902,0.543-5.251,1.433-6.463,1.351
			c-1.211-0.085-5.1,1.412-6.622,1.824s-4.508,1.366-6.704,0.836c-2.195-0.53-3.076-2.031-4.586-3.647
			c-1.509-1.615-1.652-3.627-1.954-3.814c-0.302-0.188-5.736-2.709-7.458-3.77c-1.722-1.062-1.75-1.901-5.006-5.443
			c-3.256-3.541-4.203-4.483-6.071-6.87c-1.644-2.102-1.917-4.003-2.378-6.186c-2.742,0.856-5.773,1.546-7.866,2.285
			c0.004,6.948,4.137,13.275,10.755,16.226c4.798,2.143,0.645,9.172-4.117,7.046c-7.283-3.247-12.249-9.82-14.052-17.246
			c-2.085,2.171-4.19,4.595-5.438,6.581c-2.497,3.975-3.325,10.828-8.654,13.778s-10.22,7.051-12.003,19.106
			c-1.783,12.057-8.511,28.308-5.936,38.96c2.574,10.653,2.905,19.352,10.62,29.205c7.715,9.849,11.636,13.758,25.055,28.36
			C102.231,430.896,102.357,434.377,109.457,438.751z M221.041,343.973c0.331-2.244,1.241-3.007,2.236-3.558
			c0.992-0.551,1.146-1.824,1.612-2.566c0.465-0.739,1.567-1.808,2.007-2.167c0.441-0.358,2.509-0.562,2.893-1.171
			c0.384-0.607,1.62-0.689,2.375-2.921c0.755-2.232,3.68-1.049,4.558-1.245c0.877-0.195,3.778-0.521,3.778-0.521l5.872,1.293
			c2.24-1.677,5.189,0.665,6.112,0.918c0.922,0.249,4.737,2.073,6.663,3.472c1.926,1.4,4.422,5.149,7.038,9.396
			c2.615,4.247,2.566,4.325,2.66,4.696c0.089,0.371,0.379,2.66,0.942,4.166c0.563,1.505-0.967,2.57-1.404,3.431
			c-0.437,0.865-2.77,3.383-3.133,5.161c-0.363,1.779-1.403,2.403-2.436,3.881c-1.032,1.477-3.77,2.737-4.309,3.251
			c-0.539,0.515-1.428,1.759-2.122,2.175c-0.694,0.416-4.035,1.102-4.965,1.036c-0.93-0.064-3.917,1.086-5.088,1.404
			c-1.171,0.313-3.464,1.048-5.149,0.645c-1.685-0.404-2.362-1.562-3.525-2.803c-1.159-1.241-1.269-2.787-1.501-2.93
			c-0.233-0.143-4.411-2.081-5.732-2.897c-1.322-0.815-1.347-1.46-3.844-4.182c-2.497-2.717-3.227-3.443-4.663-5.279
			c-1.437-1.836-1.498-3.452-1.979-5.435C219.454,349.239,220.706,346.217,221.041,343.973z M202.881,342.12
			c1.167-5.129,9.033-2.954,7.866,2.171c-3.199,14.051,5.724,28.408,19.56,32.097c5.08,1.354,2.921,9.226-2.171,7.87
			C209.894,379.391,198.707,360.439,202.881,342.12z"/>
	</g>
</g>
<g>
</g>
<g>
</g>
<g>
</g>
<g>
</g>
<g>
</g>
<g>
</g>
<g>
</g>
<g>
</g>
<g>
</g>
<g>
</g>
<g>
</g>
<g>
</g>
<g>
</g>
<g>
</g>
<g>
</g>
</svg>
