<?xml version="1.0" encoding="iso-8859-1"?>
<!-- Generator: Adobe Illustrator 16.0.0, SVG Export Plug-In . SVG Version: 6.00 Build 0)  -->
<!DOCTYPE svg PUBLIC "-//W3C//DTD SVG 1.1//EN" "http://www.w3.org/Graphics/SVG/1.1/DTD/svg11.dtd">
<svg version="1.1" id="Capa_1" xmlns="http://www.w3.org/2000/svg" xmlns:xlink="http://www.w3.org/1999/xlink" x="0px" y="0px"
	 width="570.463px" height="570.463px" viewBox="0 0 570.463 570.463" style="enable-background:new 0 0 570.463 570.463;"
	 xml:space="preserve">
<g>
	<g>
		<path d="M136.071,281.236c8.666,4.452,20.314,1.759,26.083-5.981c3.595-4.827,7.144-9.352,11.089-13.493
			c2.909-3.056,9.976-5.182,13.766-3.835c14.508,5.149,28.438,11.918,42.611,18.013c3.048,1.314,6.116,2.62,9.176,3.929
			c1.248-5.08,2.876-9.759,4.957-13.913c10.363-20.673,20.718-40.837,28.581-56.092l0.053-0.106l0.057-0.102
			c12.171-22.321,21.546-39.327,30.396-55.129c2.269-4.051,5.23-8.025,8.735-11.909c-2.799-1.799-5.602-3.603-8.4-5.394
			c-12.999-8.311-26.418-16.046-38.817-25.169c-3.24-2.383-5.443-9.425-4.549-13.545c1.216-5.594,2.97-11.069,4.949-16.752
			c3.174-9.119-1.13-20.27-9.678-24.949c-9.502-5.198-18.988-10.38-28.532-15.455c-24.28-12.914-48.764-25.455-72.905-38.617
			c-6.728-3.668-11.608-3.966-18.034,1.069c-33.803,26.5-60.841,56.606-80.099,90.943c-17.617,35.206-27.373,74.48-30.339,117.324
			c-0.563,8.14,2.424,12.016,9.229,15.528c24.439,12.604,48.556,25.835,72.869,38.691
			C116.826,271.342,126.438,276.287,136.071,281.236z"/>
		<path d="M474.039,287.932c-1.637-1.057-3.036-2.012-4.219-2.917c-1.693-1.29-2.918-2.485-3.782-3.726
			c-2.962-4.239-1.485-9.106,2.215-20.877c0.074-0.236,0.163-0.481,0.237-0.718c0.461-1.432,0.93-2.856,1.448-4.366
			c0.069-0.208,0.094-0.429,0.135-0.645c0.497-2.722-1.379-6.161-4.496-7.985c-4.138-2.419-8.287-4.843-12.636-7.385
			c-1.114-0.648-2.33-0.958-3.525-0.958c-1.424,0-2.799,0.485-3.97,1.31c-0.82,0.575-1.559,1.289-2.089,2.224
			c-0.352,0.616-0.698,1.224-1.049,1.84c-8.258,14.513-16.442,28.854-24.521,43.135c-7.291,14.695-14.57,29.519-21.951,44.496
			c-0.313,0.637-0.62,1.261-0.934,1.897c-0.474,0.954-0.686,1.962-0.706,2.962c-0.049,2.644,1.396,5.193,3.949,6.418
			c4.541,2.174,8.878,4.247,13.199,6.315c1.375,0.657,2.868,0.976,4.288,0.976c1.934,0,3.688-0.625,4.826-1.738
			c0.159-0.155,0.343-0.29,0.478-0.465c0.959-1.273,1.873-2.465,2.799-3.648c0.151-0.195,0.306-0.403,0.461-0.6
			c7.602-9.579,10.792-13.578,15.884-13.578c0.053,0,0.114,0.013,0.167,0.013c1.502,0.024,3.19,0.399,5.189,1.068
			c1.408,0.474,2.995,1.094,4.786,1.853c1.934,0.82,4.093,1.779,6.605,2.896c22.893,10.2,45.925,20.086,70.67,30.886
			c3.174-5.732,14.892-27.825,17.858-33.672c-22.819-14.427-43.926-27.948-65.215-41.176
			C477.816,290.322,475.796,289.07,474.039,287.932z"/>
		<path d="M125.043,563.969c30.441-37.084,66.264-107.9,100.593-169.349l34.766,3.777c4.892,0.53,8.805-0.845,11.754-3.231
			c0.175-0.118,0.334-0.257,0.506-0.383c0.159-0.144,0.334-0.27,0.49-0.416c2.962-2.371,5.145-5.896,5.675-10.788l0.526-4.831
			c47.173,58.769,101.759,126.75,148.932,185.514c13.509,16.83,39.568-4.125,26.06-20.95
			c-54.158-67.467-115.726-144.143-169.883-211.609l0.041-0.367l0.579-5.353l0.58-5.337c7.132,3.312,14.271,6.597,21.387,9.878
			c1.592,0.734,3.338,1.081,5.101,1.081c4.121,0,8.307-1.901,10.706-5.223c5.365-7.438,10.184-14.108,15.361-21.285
			c16.242,7.4,32.248,14.696,48.34,22.027l6.185-12.558c5.329-10.82,10.616-21.559,15.912-32.237l0.123-0.249l0.134-0.241
			c5.892-10.416,11.837-20.857,17.826-31.379l6.858-12.048c-15.092-9.205-30.11-18.364-45.35-27.659
			c3.036-8.311,5.859-16.042,9.005-24.659c2.003-5.492-0.433-12.383-5.438-15.406c-17.01-10.27-34.076-20.677-51.485-30.469
			c-1.281-0.722-3.15-1.065-5.097-1.065c-2.859,0-5.896,0.738-7.527,2.089c-2.566,2.13-5.051,4.488-7.401,6.973
			c-3.292,3.476-6.283,7.238-8.552,11.29c-10.236,18.274-20.314,36.638-30.343,55.027c-9.596,18.617-19.143,37.263-28.531,55.99
			c-2.081,4.153-3.513,8.739-4.545,13.415c-0.739,3.338-1.297,6.716-1.62,10.038c-0.077,0.804,0.053,1.733,0.311,2.696
			c-1.179,1.592-2.367,3.224-3.562,4.896c-1.077,1.514-2.158,3.023-3.244,4.603c-45.137,65.442-98.977,185.428-142.045,237.892
			C84.439,560.794,111.424,580.558,125.043,563.969z"/>
	</g>
</g>
<g>
</g>
<g>
</g>
<g>
</g>
<g>
</g>
<g>
</g>
<g>
</g>
<g>
</g>
<g>
</g>
<g>
</g>
<g>
</g>
<g>
</g>
<g>
</g>
<g>
</g>
<g>
</g>
<g>
</g>
</svg>
